<svg xmlns="http://www.w3.org/2000/svg" viewBox="0 0 109.77 95.76"><defs><style>.cls-1{fill:#daae28;}.cls-2{fill:#66ad47;}.cls-3{fill:#00adc5;}.cls-4{fill:#067198;}</style></defs><title>Asset 3</title><g id="Layer_2" data-name="Layer 2"><g id="Layer_1-2" data-name="Layer 1"><path class="cls-1" d="M1,.16A1,1,0,0,0,.14,1.7L6,11.75H80.37L86.92.16Z"/><polygon class="cls-2" points="9.74 18.23 16.59 30.01 70.06 30.01 76.71 18.23 9.74 18.23"/><polygon class="cls-3" points="59.74 48.27 66.4 36.48 20.36 36.48 27.21 48.27 59.74 48.27"/><path class="cls-4" d="M108.74,0,93.42.05,55.19,66.27,47.71,54l-17.08.34L54.31,95.25a1,1,0,0,0,1.78,0L109.63,1.54A1,1,0,0,0,108.74,0Z"/></g></g></svg>